# xmcd CD database file
#
# Track frame offsets:
#	150
#	32018
#	65820
#	79415
#	114694
#	153009
#	178673
#	203089
#	220774
#	260803
#	274552
#	312523
#	325812
#
# Disc length: 4797 seconds
#
# Revision: 2
# Processed by: cddbd v1.5.2PL0 Copyright (c) Steve Scherf et al.
# Submitted via: CDex 1.70beta2
#
DISCID=be12bb0d
DTITLE=Various Artist - Umbria Jazz 2012 CD1
DYEAR=2012
DGENRE=Jazz
TTITLE0=Now Hi Sings, Now Hi Sobs
TTITLE1=I Viaggi Di Gulliver
TTITLE2=Off Minor
TTITLE3=Maiden Voyage
TTITLE4=Orange Was The Colour Of Her Dress Then Blue Silk
TTITLE5=His Dreams
TTITLE6=You've Changed
TTITLE7=Incantamento
TTITLE8=A Night In Tunisia
TTITLE9=What's New
TTITLE10=Juju
TTITLE11=The Secret Marriage
TTITLE12=You Can't Go Home Again
EXTD=YEAR: 2012
EXTT0=
EXTT1=
EXTT2=
EXTT3=
EXTT4=
EXTT5=
EXTT6=
EXTT7=
EXTT8=
EXTT9=
EXTT10=
EXTT11=
EXTT12=
PLAYORDER=
